<?xml version="1.0" standalone="no"?><!DOCTYPE svg PUBLIC "-//W3C//DTD SVG 1.1//EN" "http://www.w3.org/Graphics/SVG/1.1/DTD/svg11.dtd"><svg t="1582092278013" class="icon" viewBox="0 0 1024 1024" version="1.1" xmlns="http://www.w3.org/2000/svg" p-id="2021" xmlns:xlink="http://www.w3.org/1999/xlink" width="200" height="200"><defs><style type="text/css"></style></defs><path d="M343.9 699.2c-9.1 0-17.1-6.7-18.4-16-1.5-10.2 5.6-19.6 15.8-21.1l509.6-72.8 65.7-263h-666c-10.3 0-18.6-8.3-18.6-18.6s8.3-18.6 18.6-18.6h689.9c5.7 0 11.2 2.6 14.7 7.2 3.5 4.5 4.8 10.4 3.4 16L884 610.5c-1.8 7.4-7.9 12.9-15.4 13.9L346.5 699c-0.9 0.1-1.8 0.2-2.6 0.2zM213.4 195.8c-3.6 0-7.1-1-10.3-3.1l-55.9-37.3c-8.6-5.7-10.9-17.3-5.2-25.9 5.7-8.6 17.3-10.9 25.9-5.2l55.9 37.3c8.6 5.7 10.9 17.3 5.2 25.9-3.7 5.4-9.6 8.3-15.6 8.3zM511.7 960.2c-41.1 0-74.6-33.4-74.6-74.6 0-41.1 33.5-74.6 74.6-74.6 41.1 0 74.6 33.4 74.6 74.6 0 41.2-33.5 74.6-74.6 74.6z m0-111.8c-20.6 0-37.3 16.7-37.3 37.3 0 20.6 16.7 37.3 37.3 37.3 20.6 0 37.3-16.7 37.3-37.3 0-20.6-16.7-37.3-37.3-37.3zM791.4 960.2c-41.1 0-74.6-33.4-74.6-74.6 0-41.1 33.5-74.6 74.6-74.6s74.6 33.4 74.6 74.6c-0.1 41.2-33.5 74.6-74.6 74.6z m0-111.8c-20.6 0-37.3 16.7-37.3 37.3 0 20.6 16.7 37.3 37.3 37.3s37.3-16.7 37.3-37.3c-0.1-20.6-16.8-37.3-37.3-37.3z" fill="#231815" p-id="2022"></path><path d="M791.4 848.4H437.1c-50 0-98.5-38.1-110.3-86.7L195.2 181.3c-2.3-10 4-20 14.1-22.3 10.1-2.3 20 4 22.3 14.1l131.5 580.1c7.6 31.3 41.5 57.9 74 57.9h354.3c10.3 0 18.6 8.3 18.6 18.6s-8.3 18.7-18.6 18.7zM120.1 177.1c-30.8 0-55.9-25.1-55.9-55.9s25.1-55.9 55.9-55.9S176 90.4 176 121.2s-25 55.9-55.9 55.9z m0-74.5c-10.3 0-18.6 8.4-18.6 18.6s8.4 18.6 18.6 18.6 18.6-8.4 18.6-18.6-8.3-18.6-18.6-18.6z" fill="#231815" p-id="2023"></path><path d="M659 635.5L865.9 606l74.6-298.3H447.9c8.1 142.6 91.3 265 211.1 327.8z" fill="#0D4FF7" p-id="2024"></path><path d="M659 654.2c-3 0-6-0.7-8.7-2.1-128.2-67.3-212.9-198.8-221.1-343.3-0.3-5.1 1.5-10.1 5.1-13.9 3.5-3.7 8.4-5.8 13.6-5.8h492.6c5.7 0 11.2 2.6 14.7 7.2 3.5 4.5 4.8 10.4 3.4 16L884 610.5c-1.8 7.4-7.9 12.9-15.4 13.9L661.7 654c-0.9 0.1-1.8 0.2-2.7 0.2zM468.2 326.3c13.4 121.7 86.4 231.1 194.3 289.9l188.4-26.9 65.7-263H468.2z" fill="#231815" p-id="2025"></path></svg>