<?xml version="1.0" standalone="no"?><!DOCTYPE svg PUBLIC "-//W3C//DTD SVG 1.1//EN" "http://www.w3.org/Graphics/SVG/1.1/DTD/svg11.dtd"><svg t="1582092309848" class="icon" viewBox="0 0 1024 1024" version="1.1" xmlns="http://www.w3.org/2000/svg" p-id="3038" xmlns:xlink="http://www.w3.org/1999/xlink" width="200" height="200"><defs><style type="text/css"></style></defs><path d="M884.363636 989.090909H139.636364A34.909091 34.909091 0 0 1 104.727273 954.181818 403.781818 403.781818 0 0 1 512 554.821818a418.909091 418.909091 0 0 1 126.138182 19.549091 34.909091 34.909091 0 0 1-21.178182 66.56 346.996364 346.996364 0 0 0-104.96-16.290909A335.127273 335.127273 0 0 0 176.407273 919.272727h671.185454a321.861818 321.861818 0 0 0-69.818182-166.865454 336.989091 336.989091 0 0 0-72.843636-67.956364A34.909091 34.909091 0 1 1 744.727273 626.967273a399.825455 399.825455 0 0 1 88.203636 82.152727A388.654545 388.654545 0 0 1 919.272727 954.181818a34.909091 34.909091 0 0 1-34.909091 34.909091z" fill="#00DBDE" p-id="3039"></path><path d="M512 605.090909A288.581818 288.581818 0 0 1 221.090909 320.232727a290.909091 290.909091 0 0 1 581.818182 0A288.581818 288.581818 0 0 1 512 605.090909z m0-500.363636a218.763636 218.763636 0 0 0-221.090909 215.505454 221.090909 221.090909 0 0 0 442.181818 0A218.763636 218.763636 0 0 0 512 104.727273z" fill="#00DBDE" p-id="3040"></path><path d="M512 465.454545a152.203636 152.203636 0 0 1-136.378182-88.203636 34.909091 34.909091 0 1 1 63.301818-29.556364 79.592727 79.592727 0 0 0 146.152728 0 34.909091 34.909091 0 1 1 63.301818 29.323637A151.738182 151.738182 0 0 1 512 465.454545z" fill="#FC00FF" p-id="3041"></path></svg>